# xmcd CD database file
#
# Track frame offsets:
#	150
#	14912
#	31143
#	50522
#	70684
#	86683
#	103919
#	127376
#	149711
#
# Disc length: 2267 seconds
#
# Revision: 2
# Processed by: cddbd v1.5.2PL0 Copyright (c) Steve Scherf et al.
# Submitted via: CDex 1.70beta2
#
DISCID=8b08d909
DTITLE=Krisma - Cathode Mamma
DYEAR=1980
DGENRE=Electronic
TTITLE0=Cathode Mamma (Neue Version) (Peter Sibley-M.Arcieri)
TTITLE1=Many Kisses (Peter Sibley-M.Arcieri)
TTITLE2=Peggy Guggenheim (Peter Sibley-M.Arcieri)
TTITLE3=Rrock (Peter Sibley-M.Arcieri)
TTITLE4=Rien Ne Va Plus (Peter Sibley-M.Arcieri)
TTITLE5=Cathode Mamma (Peter Sibley-M.Arcieri)
TTITLE6=Telegram (Peter Sibley-M.Arcieri)
TTITLE7=White Knife (Peter Sibley-M.Arcieri)
TTITLE8=Last Chance To See Man
EXTD=YEAR: 1980
EXTT0=
EXTT1=
EXTT2=
EXTT3=
EXTT4=
EXTT5=
EXTT6=
EXTT7=
EXTT8=
PLAYORDER=
